<svg width="22" height="22" viewBox="0 0 22 22" fill="none" xmlns="http://www.w3.org/2000/svg">
<mask id="mask0_247_4820" style="mask-type:luminance" maskUnits="userSpaceOnUse" x="1" y="1" width="20" height="20">
<path d="M11.0002 20.1667C12.2042 20.1681 13.3966 19.9317 14.5089 19.4709C15.6213 19.0102 16.6316 18.3342 17.4819 17.4817C18.3343 16.6314 19.0104 15.6211 19.4711 14.5088C19.9319 13.3964 20.1683 12.204 20.1668 11C20.1683 9.79599 19.9319 8.60356 19.4711 7.49121C19.0104 6.37886 18.3343 5.36852 17.4819 4.51824C16.6316 3.66581 15.6213 2.9898 14.5089 2.52903C13.3966 2.06827 12.2042 1.83184 11.0002 1.83332C9.79617 1.83184 8.60374 2.06827 7.49139 2.52903C6.37905 2.9898 5.36871 3.66581 4.51842 4.51824C3.66599 5.36852 2.98998 6.37886 2.52921 7.49121C2.06845 8.60356 1.83202 9.79599 1.8335 11C1.83202 12.204 2.06845 13.3964 2.52921 14.5088C2.98998 15.6211 3.66599 16.6314 4.51842 17.4817C5.36871 18.3342 6.37905 19.0102 7.49139 19.4709C8.60374 19.9317 9.79617 20.1681 11.0002 20.1667Z" fill="white" stroke="white" stroke-width="1.16667" stroke-linejoin="round"/>
<path d="M11 13.1198V11.2864C11.5439 11.2864 12.0756 11.1252 12.5278 10.823C12.9801 10.5208 13.3325 10.0913 13.5407 9.58882C13.7488 9.08632 13.8033 8.53339 13.6972 7.99994C13.5911 7.46649 13.3291 6.97649 12.9445 6.5919C12.5599 6.2073 12.0699 5.94539 11.5365 5.83928C11.0031 5.73317 10.4501 5.78763 9.94762 5.99577C9.44512 6.20391 9.01563 6.55639 8.71346 7.00862C8.41128 7.46086 8.25 7.99254 8.25 8.53644" stroke="black" stroke-width="1.16667" stroke-linecap="round" stroke-linejoin="round"/>
<path fill-rule="evenodd" clip-rule="evenodd" d="M11.0003 17.2448C11.3042 17.2448 11.5957 17.1241 11.8106 16.9092C12.0254 16.6943 12.1462 16.4029 12.1462 16.099C12.1462 15.7951 12.0254 15.5036 11.8106 15.2887C11.5957 15.0738 11.3042 14.9531 11.0003 14.9531C10.6964 14.9531 10.405 15.0738 10.1901 15.2887C9.97521 15.5036 9.85449 15.7951 9.85449 16.099C9.85449 16.4029 9.97521 16.6943 10.1901 16.9092C10.405 17.1241 10.6964 17.2448 11.0003 17.2448Z" fill="black"/>
</mask>
<g mask="url(#mask0_247_4820)">
<path d="M0 0H22V22H0V0Z" fill="white"/>
</g>
</svg>
