<svg width="21" height="21" viewBox="0 0 21 21" fill="none" xmlns="http://www.w3.org/2000/svg">
<path d="M12.6097 0H7.43967L6.84658 2.96725C6.35553 3.1873 5.88859 3.45764 5.45325 3.77392L2.58408 2.80317L0 7.28017L2.27425 9.2785C2.21933 9.81365 2.21933 10.353 2.27425 10.8882L0 12.8865L2.585 17.3635L5.45325 16.3937C5.88592 16.7072 6.35158 16.9785 6.84658 17.1994L7.43967 20.1667H12.6097L13.2028 17.1994C13.6938 16.9794 14.1607 16.709 14.5961 16.3927L17.4653 17.3635L20.0503 12.8865L17.7751 10.8882C17.83 10.353 17.83 9.81365 17.7751 9.2785L20.0493 7.28017L17.4643 2.80317L14.597 3.773C14.1616 3.45704 13.6947 3.18701 13.2037 2.96725L12.6097 0ZM10.0247 13.75C9.05221 13.75 8.11958 13.3637 7.43194 12.6761C6.74431 11.9884 6.358 11.0558 6.358 10.0833C6.358 9.11087 6.74431 8.17824 7.43194 7.49061C8.11958 6.80297 9.05221 6.41667 10.0247 6.41667C10.9971 6.41667 11.9298 6.80297 12.6174 7.49061C13.305 8.17824 13.6913 9.11087 13.6913 10.0833C13.6913 11.0558 13.305 11.9884 12.6174 12.6761C11.9298 13.3637 10.9971 13.75 10.0247 13.75Z" fill="white"/>
</svg>
