<svg width="36" height="36" viewBox="0 0 36 36" fill="none" xmlns="http://www.w3.org/2000/svg">
<g clip-path="url(#clip0_108_25954)">
<path d="M16.5937 3.65619C17.1562 4.21869 17.1562 4.21869 17.2239 4.84156C17.222 5.2294 17.222 5.2294 17.2201 5.62508C17.2201 5.91784 17.22 6.2106 17.22 6.51223C17.2171 6.82924 17.2142 7.14624 17.2112 7.47284C17.2104 7.79666 17.2096 8.12049 17.2088 8.45412C17.2056 9.49156 17.1985 10.5289 17.1914 11.5663C17.1886 12.2684 17.186 12.9704 17.1837 13.6724C17.1775 15.3962 17.1681 17.1199 17.1562 18.8437C17.3382 18.8424 17.5202 18.8412 17.7077 18.8399C19.5964 18.8275 21.4851 18.819 23.3738 18.8128C24.0793 18.81 24.7848 18.8061 25.4903 18.8013C26.5026 18.7945 27.5148 18.7912 28.5271 18.7888C28.8441 18.7859 29.1611 18.783 29.4877 18.78C29.7805 18.7799 30.0732 18.7799 30.3748 18.7798C30.6334 18.7786 30.892 18.7773 31.1584 18.776C31.7812 18.8437 31.7812 18.8437 32.3437 19.4062C32.6033 23.5725 31.025 27.5652 28.3535 30.7089C25.2923 33.9286 21.5191 35.9812 17.0403 36.0967C12.0116 36.1505 8.08323 34.9461 4.38463 31.4153C0.636144 27.3586 -0.240693 22.967 -0.050413 17.5928C0.228975 13.6136 2.54847 10.2848 5.34374 7.59369C8.41777 4.99919 12.5204 3.30952 16.5937 3.65619ZM6.32591 9.94477C3.42009 13.0328 2.10275 16.2833 2.13078 20.5341C2.25667 24.1091 3.92558 27.5927 6.46874 30.0937C9.46413 32.779 13.1404 33.9391 17.1178 33.8367C20.7046 33.6369 24.1028 31.8906 26.543 29.2686C28.4144 26.8888 29.8125 24.1669 29.8125 21.0937C29.6334 21.0908 29.4543 21.0879 29.2698 21.0849C27.4131 21.0546 25.5563 21.0223 23.6996 20.989C23.0058 20.9768 22.3121 20.965 21.6183 20.9538C20.6234 20.9376 19.6287 20.9197 18.6339 20.9014C18.1654 20.8944 18.1654 20.8944 17.6875 20.8872C17.2568 20.8788 17.2568 20.8788 16.8174 20.8702C16.5632 20.8658 16.309 20.8614 16.0471 20.8569C15.4687 20.8124 15.4687 20.8124 15.1875 20.5312C15.153 20.0826 15.1375 19.6324 15.1297 19.1826C15.1213 18.7518 15.1213 18.7518 15.1127 18.3124C15.108 18.0001 15.1033 17.6878 15.0985 17.366C15.0927 17.0481 15.0868 16.7301 15.0808 16.4025C15.0623 15.3822 15.0458 14.362 15.0293 13.3417C15.0171 12.652 15.0049 11.9622 14.9925 11.2725C14.9623 9.57748 14.9337 7.88247 14.9062 6.18744C11.6808 6.18744 8.63709 7.77039 6.32591 9.94477Z" fill="#10CBF3"/>
<path d="M20.7246 -0.0879259C25.1054 -0.039944 28.5962 1.78794 31.7626 4.7164C33.4219 6.50741 34.568 8.70111 35.4375 10.9687C35.6115 11.4125 35.6115 11.4125 35.7891 11.8652C36.115 13.5217 36.097 15.1919 36 16.875C35.5098 17.3652 34.8345 17.1921 34.168 17.1926C33.8368 17.1935 33.5055 17.1944 33.1641 17.1953C32.8035 17.1947 32.4429 17.1942 32.0713 17.1936C31.7041 17.1938 31.3368 17.1941 30.9584 17.1944C30.1801 17.1948 29.4017 17.1942 28.6234 17.1929C27.6237 17.1913 26.6239 17.1922 25.6242 17.1939C24.6736 17.1951 23.7231 17.1943 22.7725 17.1936C22.4118 17.1941 22.0512 17.1947 21.6796 17.1953C21.1827 17.194 21.1827 17.194 20.6757 17.1926C20.3824 17.1924 20.0891 17.1922 19.7869 17.1919C19.125 17.1562 19.125 17.1562 18.8438 16.875C18.8159 16.3587 18.8078 15.8413 18.8074 15.3242C18.8065 14.993 18.8056 14.6617 18.8047 14.3203C18.8053 13.9597 18.8058 13.5991 18.8064 13.2275C18.8061 12.8603 18.8059 12.493 18.8056 12.1146C18.8052 11.3363 18.8058 10.5579 18.8071 9.77958C18.8087 8.77985 18.8078 7.78014 18.8061 6.78041C18.8048 5.82983 18.8057 4.87926 18.8064 3.92868C18.8058 3.56804 18.8053 3.20741 18.8047 2.83584C18.8056 2.50455 18.8065 2.17326 18.8074 1.83193C18.8076 1.53862 18.8078 1.24531 18.8081 0.943107C18.8761 -0.318062 19.6175 -0.0625507 20.7246 -0.0879259ZM21.0938 2.24996C21.0938 6.42653 21.0938 10.6031 21.0938 14.9062C25.2703 14.9062 29.4469 14.9062 33.75 14.9062C33.2762 12.1483 33.2762 12.1483 32.2559 9.75582C32.0945 9.43787 31.9332 9.11991 31.767 8.79232C29.8829 5.63963 26.8338 3.5832 23.3438 2.53121C22.6013 2.4384 21.8588 2.34559 21.0938 2.24996Z" fill="#10CBF3"/>
</g>
<defs>
<clipPath id="clip0_108_25954">
<rect width="36" height="36" fill="white"/>
</clipPath>
</defs>
</svg>
