<svg width="37" height="37" viewBox="0 0 37 37" fill="none" xmlns="http://www.w3.org/2000/svg">
<path d="M17.9828 0C17.9828 2.04188 17.9828 4.08375 17.9828 6.1875C17.3331 6.37312 16.6834 6.55875 16.0141 6.75C12.4869 7.93652 10.1337 9.63352 8.35 12.9199C7.01302 15.7777 6.96242 18.754 7.8633 21.7485C9.00656 24.864 10.8261 26.8902 13.7641 28.4063C16.9873 29.8729 20.0169 29.8009 23.3266 28.6875C24.0162 28.3432 24.6645 27.9755 25.3129 27.5592C25.8578 27.2813 25.8578 27.2813 26.9828 27.2813C27.7055 27.7722 28.2878 28.4168 28.8988 29.0391C29.1563 29.2865 29.1563 29.2865 29.419 29.5389C29.5798 29.7003 29.7406 29.8616 29.9063 30.0278C30.0538 30.1751 30.2012 30.3224 30.3532 30.4742C30.6391 30.9375 30.6391 30.9375 30.5924 31.5179C30.2033 32.4212 29.3896 32.8276 28.5824 33.3281C28.4064 33.4392 28.2304 33.5504 28.0491 33.6649C24.0654 36.0934 18.781 36.8356 14.2255 35.755C8.82378 34.046 5.06458 30.8697 2.42617 25.8926C0.536747 21.8615 0.0546286 16.9255 1.36159 12.6156C3.26389 7.66692 6.24451 3.75868 11.1273 1.44141C13.5627 0.430178 15.2879 0 17.9828 0Z" fill="#1D88FA"/>
<path d="M19.6154 0.0743408C24.3345 0.0539966 28.2752 1.89859 31.7308 5.08466C35.4174 8.88529 36.9746 13.5294 36.9512 18.7415C36.8538 22.9705 35.3667 26.5645 32.6813 29.8308C31.4378 29.7183 30.7787 28.8693 29.9664 28.0144C29.0247 26.977 29.0247 26.977 27.8843 26.1952C27.9755 25.8235 28.0667 25.4519 28.1607 25.069C29.1967 25.4942 29.8252 26.1183 30.5945 26.9218C30.9957 27.3407 31.4055 27.7519 31.8302 28.1469C32.0159 28.1461 32.2015 28.1453 32.3927 28.1445C35.3816 24.2501 35.9284 19.2571 35.3081 14.5318C34.3365 10.2042 31.9149 6.42654 28.1929 3.99248C25.7686 2.58383 23.483 1.81145 20.7452 1.19448C20.7512 2.58666 20.7572 3.97883 20.7634 5.41319C21.0651 5.42349 21.3668 5.43379 21.6776 5.44441C25.0849 5.88097 27.6414 8.12903 29.681 10.7482C31.4774 13.402 32.0499 16.5538 31.7939 19.7095C31.3749 21.6733 30.8236 23.4781 29.5669 25.0629C29.2881 24.9713 29.0093 24.8797 28.722 24.7853C29.0279 23.83 29.3537 22.8877 29.7117 21.9509C30.7792 19.0501 30.5834 16.1415 29.516 13.2505C27.7582 9.76339 25.5027 8.11398 21.8944 6.81458C21.1507 6.53934 20.407 6.26411 19.6408 5.98054C19.6324 4.03149 19.624 2.08245 19.6154 0.0743408Z" fill="#1D88FA"/>
</svg>
